<svg xmlns="http://www.w3.org/2000/svg" width="157" height="62" viewBox="0 0 785 310" fill="#634A84"><path d="m70.196104 66.962646 58.89 58.89c10.22 10.21 26.8 10.21 37.02 0 10.22-10.22 10.22-26.8 0-37.02l-58.89-58.89-16.83 16.83 58.89 58.89c.93.92.93 2.43 0 3.36-.93.93-2.43.93-3.36 0l-58.89-58.89"/><path d="m224.996104 66.962646-58.89-58.89c-10.22-10.22-26.8-10.22-37.02 0-10.21 10.21-10.21 26.8 0 37.01l58.89 58.89 16.83-16.82-58.89-58.89c-.93-.93-.93-2.44 0-3.37.93-.93 2.43-.93 3.36 0l58.89 58.89"/><path d="m66.836104 225.122646 58.89-58.89c10.21-10.22 10.21-26.8 0-37.02-10.22-10.22-26.8-10.22-37.02 0l-58.89 58.89 16.83 16.83 58.89-58.89c.92-.93 2.43-.93 3.36 0 .93.93.93 2.43 0 3.36l-58.89 58.89"/><path d="m66.836104 70.322646-58.89 58.89c-10.22 10.22-10.22 26.8 0 37.02 10.21 10.21 26.8 10.21 37.01 0l58.89-58.89-16.82-16.83-58.89 58.89c-.93.93-2.44.93-3.37 0-.93-.93-.93-2.43 0-3.36l58.89-58.89"/><path d="m224.996104 228.482646-58.89-58.89c-10.22-10.21-26.8-10.21-37.02 0-10.21 10.22-10.21 26.8 0 37.02l58.89 58.89 16.83-16.83-58.89-58.89c-.93-.92-.93-2.43 0-3.36.93-.93 2.43-.93 3.36 0l58.89 58.89"/><path d="m70.196104 228.482646 58.89 58.89c10.22 10.22 26.8 10.22 37.02 0 10.22-10.21 10.22-26.8 0-37.01l-58.89-58.89-16.83 16.82 58.89 58.89c.93.93.93 2.44 0 3.37-.93.93-2.43.93-3.36 0l-58.89-58.89"/><path d="m228.356104 70.322646-58.89 58.89c-10.21 10.22-10.21 26.8 0 37.02 10.22 10.21 26.8 10.21 37.02 0l58.89-58.89-16.83-16.83-58.89 58.89c-.92.93-2.43.93-3.36 0-.93-.93-.93-2.43 0-3.36l58.89-58.89"/><path d="m228.356104 225.122646 58.89-58.89c10.22-10.22 10.22-26.8 0-37.02-10.21-10.22-26.8-10.22-37.01 0l-58.89 58.89 16.82 16.83 58.89-58.89c.93-.93 2.44-.93 3.37 0 .93.93.93 2.43 0 3.36l-58.89 58.89"/><path d="M429.836104 117.042646c-7.37-3.07-2.82-17.68-11.87-20.47-10.65-3.28-26.23-4.87-31.94 7.37-4.3 9.21.89 21.18 12.08 25.59 18.46 7.27 43.94 7.62 53.22 27.22 3.69 7.78 3.59 22.66 1.23 32.76-5.12 21.9-31.26 38.51-55.27 40.33-16.64 1.25-36.71 3.54-50.77-7.17 3.32-13.47-1.43-28.45 2.25-41.96.42-1.54 11.39-1.02 13.11.81 5.73 6.15 3.51 17.81 13.3 23.34 10.33 5.83 20.92 7.91 30.71-.2 7.16-5.94 9.79-22.85-.82-28.46-18.1-9.57-38.69-6.14-54.45-24.97-9.99-11.94-8.5-31.21-4.3-45.45 3.68-12.49 22.3-29.67 40.74-31.11 13.1-1.03 47.92-2.36 56.49 10.03 1.85 2.66.82 24.56-2.86 31.11-1.21 2.15-9.3 1.88-10.85 1.23"/><path d="M633.986104 106.402646c-.38-10.35-17.89-2.57-23.6-9.42-2.32-2.79-.82-13.06 2.05-13.72 20.07-4.6 27.18-3.04 58.45-11.97 6.44-1.84 5.83 17.92 5.83 19.75 0 1.95 3.49 1.91 5.12 1.03 20.47-11.06 38.07-25.18 62.64-18.84 13.78 3.56 24.23 16.1 24.77 30.1 1.23 31.93-4.03 58.66-1.23 90.89.2 12.69 14.87 7.69 15.76 12.48.77 4.17 2.29 16.27-1.64 15.85-37.66-3.97-47.49 4.21-56.26-.7-2.83-1.58-.3-14.13 0-20.26 1.64-33.58 3.04-50.77-2.73-85.26-3.14-18.76-30.05-14.85-43.77-5.23 0 29.48-.03 56.5.02 85.12.02 9.61 14.92 6.18 19.02 12.12 2.94 4.27 1.23 16.79-6.76 15.15-22.87-4.69-43.81-1.43-67.14 0-4.27.26-4.78-8.83-3.89-13.1 1.54-7.35 13.84-3.21 13.92-10.24.41-34.56.67-60.18-.56-93.75"/><path d="M470.576104 107.832646c-.88-10.31-16.26-1.55-21.96-8.39-2.33-2.79-.83-13.06 2.04-13.72 20.07-4.6 22.7-2.14 56.76-11.87 5.74-1.64 4.74 9.02 4.74 10.85 0 39.1-1.5 86.55 3.45 98.87 7.58 18.83 43.81 10.52 43.81-3.27 0-26.21.67-46.06-.35-73.49-.39-10.35-17.9-1.55-23.6-8.4-2.32-2.79-.83-13.05 2.05-13.71 20.07-4.61 28.74-1.35 59.36-12.29 5.73-2.04 5.53 6.57 5.53 8.4 0 43.81-.68 72.88 0 114.84.2 12.69 14.87 7.69 15.76 12.49.77 4.16 2.31 15.35-1.64 15.14-27.63-1.43-48.18 4.63-54.86 0-2.66-1.84.59-14.15 0-20.26-.12-1.22-1.43-3.05-2.86-2.25-14.68 8.2-21.05 25.49-39.51 27.43-19.38 2.04-40.97-6.88-45.86-26.82-5.32-21.7-.82-69.6-2.86-93.55"/><path d="M348.706144 260.152686v34.91h5.6v-21.92c0-5.07 3.67-9.13 8.2-9.13 4.13 0 6.46 2.53 6.46 7v24.05h5.6v-21.92c0-5.07 3.66-9.13 8.19-9.13 4.07 0 6.47 2.6 6.47 7v24.05h5.59v-26.19c0-6.26-3.6-9.72-10.13-9.72-4.66 0-7.46 1.4-10.72 5.33-2.07-3.73-4.87-5.33-9.4-5.33-4.66 0-7.79 1.73-10.73 5.93v-4.93Z"/><path d="M412.746144 260.152686h-5.53v34.91h5.53Zm0-13.66h-5.6v6.99h5.6Z"/><path d="M452.116144 271.872686c-.26-3.4-1-5.59-2.33-7.53-2.4-3.26-6.59-5.19-11.46-5.19-9.46 0-15.52 7.46-15.52 19.05 0 11.26 5.99 18.39 15.45 18.39 8.33 0 13.6-4.99 14.26-13.52h-5.59c-.94 5.59-3.8 8.39-8.53 8.39-6.13 0-9.8-5-9.8-13.26 0-8.73 3.6-13.92 9.66-13.92 4.67 0 7.6 2.73 8.27 7.59Z"/><path d="M461.846144 260.152686v34.91h5.6v-18.12c.07-8.4 3.53-12.13 11.19-11.93v-5.66c-.93-.14-1.46-.2-2.13-.2-3.6 0-6.33 2.13-9.53 7.33v-6.33Z"/><path d="M500.756144 259.152686c-9.86 0-15.72 6.99-15.72 18.72 0 11.79 5.86 18.72 15.79 18.72 9.86 0 15.79-6.99 15.79-18.45 0-12.13-5.73-18.99-15.86-18.99Zm.07 5.13c6.26 0 9.99 5.13 9.99 13.79 0 8.26-3.86 13.39-9.99 13.39-6.2 0-9.99-5.13-9.99-13.59s3.79-13.59 9.99-13.59Z"/><path d="M552.066144 269.872686c-.07-6.86-4.6-10.72-12.66-10.72-8.13 0-13.39 4.19-13.39 10.66 0 5.46 2.8 8.06 11.06 10.06l5.19 1.26c3.87.94 5.4 2.34 5.4 4.8 0 3.33-3.26 5.53-8.13 5.53-3 0-5.53-.86-6.93-2.33-.86-1-1.26-2-1.6-4.46h-5.86c.27 8.06 4.8 11.92 13.93 11.92 8.79 0 14.39-4.33 14.39-11.06 0-5.2-2.93-8.06-9.86-9.73l-5.33-1.26c-4.53-1.07-6.47-2.53-6.47-5 0-3.26 2.87-5.26 7.4-5.26 4.46 0 6.86 1.93 7 5.59Z"/><path d="m585.246144 260.152686-9.66 27.18-8.93-27.18h-5.93l11.79 35.04-2.13 5.53c-.93 2.47-2.13 3.4-4.46 3.4-.94 0-1.73-.13-2.93-.4v5c1.13.6 2.26.87 3.73.87 1.8 0 3.73-.6 5.19-1.67 1.74-1.27 2.74-2.73 3.8-5.53l15.53-42.24Z"/><path d="M625.086144 269.872686c-.06-6.86-4.59-10.72-12.65-10.72-8.13 0-13.4 4.19-13.4 10.66 0 5.46 2.8 8.06 11.06 10.06l5.2 1.26c3.86.94 5.4 2.34 5.4 4.8 0 3.33-3.27 5.53-8.13 5.53-3 0-5.53-.86-6.93-2.33-.87-1-1.27-2-1.6-4.46h-5.86c.26 8.06 4.79 11.92 13.92 11.92 8.8 0 14.39-4.33 14.39-11.06 0-5.2-2.93-8.06-9.86-9.73l-5.33-1.26c-4.53-1.07-6.46-2.53-6.46-5 0-3.26 2.86-5.26 7.4-5.26 4.46 0 6.86 1.93 6.99 5.59Z"/><path d="M649.346144 260.152686h-5.73v-9.6h-5.53v9.6h-4.73v4.53h4.73v26.38c0 3.6 2.4 5.53 6.73 5.53 1.46 0 2.66-.13 4.53-.46v-4.67c-.8.2-1.53.27-2.67.27-2.39 0-3.06-.67-3.06-3.13v-23.92h5.73Z"/><path d="M688.326144 279.472686c0-5.33-.4-8.53-1.4-11.13-2.27-5.73-7.6-9.19-14.13-9.19-9.73 0-15.99 7.39-15.99 18.92 0 11.53 6 18.52 15.86 18.52 7.99 0 13.53-4.53 14.92-12.12h-5.59c-1.54 4.59-4.67 6.99-9.13 6.99-3.53 0-6.53-1.6-8.4-4.53-1.33-2-1.8-4-1.86-7.46Zm-25.59-4.53c.47-6.47 4.4-10.66 10-10.66 5.66 0 9.59 4.39 9.59 10.66Z"/><path d="M699.056144 260.152686v34.91h5.59v-21.92c0-5.07 3.67-9.13 8.2-9.13 4.13 0 6.46 2.53 6.46 7v24.05h5.6v-21.92c0-5.07 3.66-9.13 8.19-9.13 4.07 0 6.47 2.6 6.47 7v24.05h5.59v-26.19c0-6.26-3.59-9.72-10.12-9.72-4.67 0-7.47 1.4-10.73 5.33-2.07-3.73-4.87-5.33-9.4-5.33-4.66 0-7.79 1.73-10.72 5.93v-4.93Z"/><path d="M782.276144 269.872686c-.07-6.86-4.6-10.72-12.66-10.72-8.13 0-13.4 4.19-13.4 10.66 0 5.46 2.8 8.06 11.06 10.06l5.2 1.26c3.87.94 5.4 2.34 5.4 4.8 0 3.33-3.27 5.53-8.13 5.53-3 0-5.53-.86-6.93-2.33-.87-1-1.27-2-1.6-4.46h-5.86c.26 8.06 4.79 11.92 13.92 11.92 8.8 0 14.4-4.33 14.4-11.06 0-5.2-2.94-8.06-9.87-9.73l-5.33-1.26c-4.53-1.07-6.46-2.53-6.46-5 0-3.26 2.87-5.26 7.4-5.26 4.46 0 6.86 1.93 6.99 5.59Z"/></svg>